<mxfile host="Electron" agent="Mozilla/5.0 (X11; Linux x86_64) AppleWebKit/537.36 (KHTML, like Gecko) draw.io/26.0.9 Chrome/128.0.6613.186 Electron/32.2.5 Safari/537.36" version="26.0.9">
  <diagram name="Page-1" id="mt5jodFX_iC-GujYhNPG">
    <mxGraphModel dx="1434" dy="870" grid="1" gridSize="10" guides="1" tooltips="1" connect="1" arrows="1" fold="1" page="1" pageScale="1" pageWidth="850" pageHeight="1100" math="0" shadow="0">
      <root>
        <mxCell id="0" />
        <mxCell id="1" parent="0" />
        <mxCell id="sjgorx1MPczVQXEzCn1Q-46" value="" style="rounded=0;whiteSpace=wrap;html=1;" vertex="1" parent="1">
          <mxGeometry x="100" y="890" width="240" height="130" as="geometry" />
        </mxCell>
        <mxCell id="sjgorx1MPczVQXEzCn1Q-25" value="" style="rounded=0;whiteSpace=wrap;html=1;" vertex="1" parent="1">
          <mxGeometry x="860" y="372.5" width="590" height="250" as="geometry" />
        </mxCell>
        <mxCell id="sjgorx1MPczVQXEzCn1Q-7" value="" style="rounded=0;whiteSpace=wrap;html=1;" vertex="1" parent="1">
          <mxGeometry x="60" y="290" width="740" height="140" as="geometry" />
        </mxCell>
        <mxCell id="sjgorx1MPczVQXEzCn1Q-8" value="ПСДОИ - psdoi-parsing.service - /opt/psdoi_parsing - скачивает файлы из источников в&amp;nbsp;&lt;span style=&quot;background-color: transparent;&quot;&gt;/opt/psdoi_parsing/parsed_data&lt;/span&gt;&lt;div&gt;&lt;span style=&quot;background-color: transparent; color: light-dark(rgb(0, 0, 0), rgb(255, 255, 255));&quot;&gt;&lt;br&gt;&lt;/span&gt;&lt;/div&gt;" style="rounded=0;whiteSpace=wrap;html=1;" vertex="1" parent="1">
          <mxGeometry x="70" y="305" width="250" height="105" as="geometry" />
        </mxCell>
        <mxCell id="sjgorx1MPczVQXEzCn1Q-9" value="СТРОМ -&amp;nbsp;&lt;span style=&quot;background-color: transparent;&quot;&gt;strom_sender.service -&amp;nbsp;&lt;/span&gt;&lt;span style=&quot;background-color: transparent;&quot;&gt;/opt/stromSender - слушает&amp;nbsp;&lt;/span&gt;/opt/psdoi_parsing/parsed_data на наличие новых файлов, отправляет на приёмник СТРОМа (куда и что отправялет, описывается в scan_folder.lst)" style="rounded=0;whiteSpace=wrap;html=1;" vertex="1" parent="1">
          <mxGeometry x="540" y="302.5" width="250" height="105" as="geometry" />
        </mxCell>
        <mxCell id="sjgorx1MPczVQXEzCn1Q-14" value="/opt/psdoi_parsing/parsed_data" style="text;html=1;align=center;verticalAlign=middle;whiteSpace=wrap;rounded=0;" vertex="1" parent="1">
          <mxGeometry x="340" y="332.5" width="180" height="45" as="geometry" />
        </mxCell>
        <mxCell id="sjgorx1MPczVQXEzCn1Q-16" value="" style="endArrow=classic;html=1;rounded=0;exitX=0.996;exitY=0.436;exitDx=0;exitDy=0;exitPerimeter=0;" edge="1" parent="1" source="sjgorx1MPczVQXEzCn1Q-8" target="sjgorx1MPczVQXEzCn1Q-14">
          <mxGeometry width="50" height="50" relative="1" as="geometry">
            <mxPoint x="340" y="350" as="sourcePoint" />
            <mxPoint x="390" y="300" as="targetPoint" />
          </mxGeometry>
        </mxCell>
        <mxCell id="sjgorx1MPczVQXEzCn1Q-17" value="" style="endArrow=classic;html=1;rounded=0;exitX=1;exitY=0.5;exitDx=0;exitDy=0;entryX=0;entryY=0.5;entryDx=0;entryDy=0;" edge="1" parent="1" source="sjgorx1MPczVQXEzCn1Q-14" target="sjgorx1MPczVQXEzCn1Q-9">
          <mxGeometry width="50" height="50" relative="1" as="geometry">
            <mxPoint x="450" y="540" as="sourcePoint" />
            <mxPoint x="500" y="490" as="targetPoint" />
          </mxGeometry>
        </mxCell>
        <mxCell id="sjgorx1MPczVQXEzCn1Q-18" value="" style="endArrow=classic;html=1;rounded=0;entryX=0.25;entryY=0;entryDx=0;entryDy=0;" edge="1" parent="1" target="sjgorx1MPczVQXEzCn1Q-8">
          <mxGeometry width="50" height="50" relative="1" as="geometry">
            <mxPoint x="133" y="240" as="sourcePoint" />
            <mxPoint x="160" y="230" as="targetPoint" />
          </mxGeometry>
        </mxCell>
        <mxCell id="sjgorx1MPczVQXEzCn1Q-19" value="Источники" style="text;html=1;align=center;verticalAlign=middle;whiteSpace=wrap;rounded=0;" vertex="1" parent="1">
          <mxGeometry x="110" y="210" width="60" height="30" as="geometry" />
        </mxCell>
        <mxCell id="sjgorx1MPczVQXEzCn1Q-20" value="" style="rounded=0;whiteSpace=wrap;html=1;" vertex="1" parent="1">
          <mxGeometry x="60" y="470" width="740" height="370" as="geometry" />
        </mxCell>
        <mxCell id="sjgorx1MPczVQXEzCn1Q-21" value="СТРОМ -&amp;nbsp;&lt;span style=&quot;background-color: transparent;&quot;&gt;strom_receiver.service -&amp;nbsp;&lt;/span&gt;&lt;span style=&quot;background-color: transparent;&quot;&gt;/opt/stromReceiver/&amp;nbsp;- слушает&amp;nbsp;&lt;/span&gt;/opt/psdoi_parsing/parsed_data на наличие новых файлов, отправляет на приёмник СТРОМа (куда и что отправялет, описывается в scan_folder.lst)" style="rounded=0;whiteSpace=wrap;html=1;" vertex="1" parent="1">
          <mxGeometry x="530" y="490" width="250" height="105" as="geometry" />
        </mxCell>
        <mxCell id="sjgorx1MPczVQXEzCn1Q-22" value="DrWeb - антивирус, у которого берутся папки с базами" style="rounded=0;whiteSpace=wrap;html=1;" vertex="1" parent="1">
          <mxGeometry x="870" y="390" width="140" height="75" as="geometry" />
        </mxCell>
        <mxCell id="sjgorx1MPczVQXEzCn1Q-23" value="СТРОМ -&amp;nbsp;&lt;span style=&quot;background-color: transparent;&quot;&gt;strom_sender.service -&amp;nbsp;&lt;/span&gt;&lt;span style=&quot;background-color: transparent;&quot;&gt;/opt/stromSender - слушает&amp;nbsp;&lt;/span&gt;&lt;span style=&quot;background-color: transparent;&quot;&gt;/opt/drweb_bases_to_archive/archives&lt;/span&gt;&lt;br&gt;&amp;nbsp;на наличие новых файлов, отправляет на приёмник СТРОМа (куда и что отправялет, описывается в scan_folder.lst)" style="rounded=0;whiteSpace=wrap;html=1;" vertex="1" parent="1">
          <mxGeometry x="870" y="482.5" width="260" height="120" as="geometry" />
        </mxCell>
        <mxCell id="sjgorx1MPczVQXEzCn1Q-24" value="&lt;div&gt;drweb_script.sh -&amp;nbsp;/opt/drweb_bases_to_archive/ - скрипт, который берёт директории антивируса и их содержимое, упаковывает в архивы (по пути /opt/drweb_bases_to_archive/archives), берёт хэш-сумму (SHA-256) с этих архивов&lt;/div&gt;&lt;div&gt;&lt;br&gt;&lt;/div&gt;" style="rounded=0;whiteSpace=wrap;html=1;" vertex="1" parent="1">
          <mxGeometry x="1140" y="385" width="295" height="120" as="geometry" />
        </mxCell>
        <mxCell id="sjgorx1MPczVQXEzCn1Q-26" value="/opt/drweb_bases_to_archive/archives/" style="text;html=1;align=center;verticalAlign=middle;whiteSpace=wrap;rounded=0;" vertex="1" parent="1">
          <mxGeometry x="1185" y="542.5" width="225" height="30" as="geometry" />
        </mxCell>
        <mxCell id="sjgorx1MPczVQXEzCn1Q-27" value="" style="endArrow=classic;html=1;rounded=0;exitX=0.475;exitY=0.988;exitDx=0;exitDy=0;exitPerimeter=0;entryX=0.5;entryY=0;entryDx=0;entryDy=0;" edge="1" parent="1" source="sjgorx1MPczVQXEzCn1Q-24" target="sjgorx1MPczVQXEzCn1Q-26">
          <mxGeometry width="50" height="50" relative="1" as="geometry">
            <mxPoint x="1250" y="722.5" as="sourcePoint" />
            <mxPoint x="1300" y="672.5" as="targetPoint" />
          </mxGeometry>
        </mxCell>
        <mxCell id="sjgorx1MPczVQXEzCn1Q-28" value="" style="endArrow=classic;html=1;rounded=0;exitX=0;exitY=0.5;exitDx=0;exitDy=0;entryX=0.996;entryY=0.608;entryDx=0;entryDy=0;entryPerimeter=0;" edge="1" parent="1" source="sjgorx1MPczVQXEzCn1Q-26" target="sjgorx1MPczVQXEzCn1Q-23">
          <mxGeometry width="50" height="50" relative="1" as="geometry">
            <mxPoint x="1140" y="702.5" as="sourcePoint" />
            <mxPoint x="1190" y="652.5" as="targetPoint" />
          </mxGeometry>
        </mxCell>
        <mxCell id="sjgorx1MPczVQXEzCn1Q-29" value="" style="endArrow=classic;html=1;rounded=0;exitX=0.5;exitY=1;exitDx=0;exitDy=0;entryX=0.5;entryY=0;entryDx=0;entryDy=0;" edge="1" parent="1" source="sjgorx1MPczVQXEzCn1Q-9" target="sjgorx1MPczVQXEzCn1Q-21">
          <mxGeometry width="50" height="50" relative="1" as="geometry">
            <mxPoint x="710" y="480" as="sourcePoint" />
            <mxPoint x="760" y="430" as="targetPoint" />
          </mxGeometry>
        </mxCell>
        <mxCell id="sjgorx1MPczVQXEzCn1Q-30" value="" style="endArrow=classic;html=1;rounded=0;exitX=0;exitY=0.5;exitDx=0;exitDy=0;entryX=1;entryY=0.5;entryDx=0;entryDy=0;" edge="1" parent="1" source="sjgorx1MPczVQXEzCn1Q-23" target="sjgorx1MPczVQXEzCn1Q-21">
          <mxGeometry width="50" height="50" relative="1" as="geometry">
            <mxPoint x="840" y="800" as="sourcePoint" />
            <mxPoint x="890" y="750" as="targetPoint" />
          </mxGeometry>
        </mxCell>
        <mxCell id="sjgorx1MPczVQXEzCn1Q-31" value="ПСДОИ" style="text;html=1;align=center;verticalAlign=middle;whiteSpace=wrap;rounded=0;" vertex="1" parent="1">
          <mxGeometry x="380" y="250" width="60" height="30" as="geometry" />
        </mxCell>
        <mxCell id="sjgorx1MPczVQXEzCn1Q-32" value="Антивирус" style="text;html=1;align=center;verticalAlign=middle;whiteSpace=wrap;rounded=0;" vertex="1" parent="1">
          <mxGeometry x="1130" y="332.5" width="60" height="30" as="geometry" />
        </mxCell>
        <mxCell id="sjgorx1MPczVQXEzCn1Q-33" value="ПАУМР" style="text;html=1;align=center;verticalAlign=middle;whiteSpace=wrap;rounded=0;" vertex="1" parent="1">
          <mxGeometry x="380" y="440" width="60" height="30" as="geometry" />
        </mxCell>
        <mxCell id="sjgorx1MPczVQXEzCn1Q-34" value="&lt;div&gt;/opt/stromReceiver/parsed_data/unchangedRights&lt;/div&gt;" style="text;html=1;align=center;verticalAlign=middle;whiteSpace=wrap;rounded=0;" vertex="1" parent="1">
          <mxGeometry x="110" y="490" width="262.5" height="41" as="geometry" />
        </mxCell>
        <mxCell id="sjgorx1MPczVQXEzCn1Q-35" value="change_rights.service -&amp;nbsp;&lt;span style=&quot;background-color: transparent;&quot;&gt;/opt/stromReceiver/ownChanger.sh - скрипт, который перемещает файлы из&amp;nbsp;&lt;/span&gt;&lt;span style=&quot;background-color: transparent;&quot;&gt;/opt/stromReceiver/parsed_data/unchangedRights в&amp;nbsp;&lt;/span&gt;&lt;span style=&quot;background-color: transparent;&quot;&gt;/opt/stromReceiver/parsed_data/changedRights со сменой владельца файлов, которые он перемещает&lt;/span&gt;" style="rounded=0;whiteSpace=wrap;html=1;" vertex="1" parent="1">
          <mxGeometry x="91.25" y="550" width="300" height="100" as="geometry" />
        </mxCell>
        <mxCell id="sjgorx1MPczVQXEzCn1Q-37" value="" style="endArrow=classic;html=1;rounded=0;exitX=0;exitY=0.25;exitDx=0;exitDy=0;entryX=1;entryY=0.5;entryDx=0;entryDy=0;" edge="1" parent="1" source="sjgorx1MPczVQXEzCn1Q-21" target="sjgorx1MPczVQXEzCn1Q-34">
          <mxGeometry width="50" height="50" relative="1" as="geometry">
            <mxPoint x="460" y="560" as="sourcePoint" />
            <mxPoint x="510" y="510" as="targetPoint" />
          </mxGeometry>
        </mxCell>
        <mxCell id="sjgorx1MPczVQXEzCn1Q-38" value="" style="endArrow=classic;html=1;rounded=0;exitX=0.476;exitY=0.951;exitDx=0;exitDy=0;exitPerimeter=0;entryX=0.476;entryY=0.04;entryDx=0;entryDy=0;entryPerimeter=0;" edge="1" parent="1" source="sjgorx1MPczVQXEzCn1Q-34" target="sjgorx1MPczVQXEzCn1Q-35">
          <mxGeometry width="50" height="50" relative="1" as="geometry">
            <mxPoint x="270" y="710" as="sourcePoint" />
            <mxPoint x="320" y="660" as="targetPoint" />
          </mxGeometry>
        </mxCell>
        <mxCell id="sjgorx1MPczVQXEzCn1Q-39" value="" style="endArrow=classic;html=1;rounded=0;exitX=0.433;exitY=1.01;exitDx=0;exitDy=0;exitPerimeter=0;entryX=0.472;entryY=0.049;entryDx=0;entryDy=0;entryPerimeter=0;" edge="1" parent="1" source="sjgorx1MPczVQXEzCn1Q-35" target="sjgorx1MPczVQXEzCn1Q-40">
          <mxGeometry width="50" height="50" relative="1" as="geometry">
            <mxPoint x="190" y="720" as="sourcePoint" />
            <mxPoint x="240" y="670" as="targetPoint" />
          </mxGeometry>
        </mxCell>
        <mxCell id="sjgorx1MPczVQXEzCn1Q-40" value="&lt;div&gt;/opt/stromReceiver/parsed_data/changedRights&lt;/div&gt;" style="text;html=1;align=center;verticalAlign=middle;whiteSpace=wrap;rounded=0;" vertex="1" parent="1">
          <mxGeometry x="100" y="669" width="262.5" height="41" as="geometry" />
        </mxCell>
        <mxCell id="sjgorx1MPczVQXEzCn1Q-41" value="logstash -&amp;nbsp;&lt;span style=&quot;background-color: transparent;&quot;&gt;/opt/psus/logstash/ - оптравляет файлы в СЦ ПСУС (opensearch) (куда и что отправляет описывается в&amp;nbsp;&lt;/span&gt;/opt/psus/logstash/config/&lt;span style=&quot;background-color: transparent;&quot;&gt;logstash-sample.conf&lt;/span&gt;" style="rounded=0;whiteSpace=wrap;html=1;" vertex="1" parent="1">
          <mxGeometry x="90" y="730" width="300" height="90" as="geometry" />
        </mxCell>
        <mxCell id="sjgorx1MPczVQXEzCn1Q-42" value="gitea_script.service -&amp;nbsp;&lt;span style=&quot;background-color: transparent;&quot;&gt;/home/altar/.local/lib/python3.7/site-packages/gitea_script/main.py - скрипт который отправляет файлы в gitea&lt;/span&gt;" style="rounded=0;whiteSpace=wrap;html=1;" vertex="1" parent="1">
          <mxGeometry x="470" y="710" width="250" height="80" as="geometry" />
        </mxCell>
        <mxCell id="sjgorx1MPczVQXEzCn1Q-43" value="" style="endArrow=classic;html=1;rounded=0;exitX=0.571;exitY=0.976;exitDx=0;exitDy=0;exitPerimeter=0;entryX=0.523;entryY=0.011;entryDx=0;entryDy=0;entryPerimeter=0;" edge="1" parent="1" source="sjgorx1MPczVQXEzCn1Q-40" target="sjgorx1MPczVQXEzCn1Q-41">
          <mxGeometry width="50" height="50" relative="1" as="geometry">
            <mxPoint x="230" y="740" as="sourcePoint" />
            <mxPoint x="280" y="690" as="targetPoint" />
          </mxGeometry>
        </mxCell>
        <mxCell id="sjgorx1MPczVQXEzCn1Q-44" value="" style="endArrow=classic;html=1;rounded=0;exitX=1;exitY=0.5;exitDx=0;exitDy=0;entryX=0.004;entryY=0.125;entryDx=0;entryDy=0;entryPerimeter=0;" edge="1" parent="1" source="sjgorx1MPczVQXEzCn1Q-40" target="sjgorx1MPczVQXEzCn1Q-42">
          <mxGeometry width="50" height="50" relative="1" as="geometry">
            <mxPoint x="530" y="690" as="sourcePoint" />
            <mxPoint x="580" y="640" as="targetPoint" />
          </mxGeometry>
        </mxCell>
        <mxCell id="sjgorx1MPczVQXEzCn1Q-45" value="opensearch" style="rounded=0;whiteSpace=wrap;html=1;" vertex="1" parent="1">
          <mxGeometry x="160" y="925" width="120" height="60" as="geometry" />
        </mxCell>
        <mxCell id="sjgorx1MPczVQXEzCn1Q-47" value="" style="endArrow=classic;html=1;rounded=0;exitX=0.5;exitY=1;exitDx=0;exitDy=0;entryX=0.5;entryY=0;entryDx=0;entryDy=0;" edge="1" parent="1" source="sjgorx1MPczVQXEzCn1Q-41" target="sjgorx1MPczVQXEzCn1Q-45">
          <mxGeometry width="50" height="50" relative="1" as="geometry">
            <mxPoint x="480" y="940" as="sourcePoint" />
            <mxPoint x="530" y="890" as="targetPoint" />
          </mxGeometry>
        </mxCell>
        <mxCell id="sjgorx1MPczVQXEzCn1Q-48" value="СЦ ПСУС" style="text;html=1;align=center;verticalAlign=middle;whiteSpace=wrap;rounded=0;" vertex="1" parent="1">
          <mxGeometry x="120" y="860" width="60" height="30" as="geometry" />
        </mxCell>
        <mxCell id="sjgorx1MPczVQXEzCn1Q-49" value="Gitea" style="rounded=0;whiteSpace=wrap;html=1;" vertex="1" parent="1">
          <mxGeometry x="870" y="720" width="120" height="60" as="geometry" />
        </mxCell>
        <mxCell id="sjgorx1MPczVQXEzCn1Q-50" value="" style="endArrow=classic;html=1;rounded=0;exitX=1;exitY=0.5;exitDx=0;exitDy=0;entryX=0;entryY=0.5;entryDx=0;entryDy=0;" edge="1" parent="1" source="sjgorx1MPczVQXEzCn1Q-42" target="sjgorx1MPczVQXEzCn1Q-49">
          <mxGeometry width="50" height="50" relative="1" as="geometry">
            <mxPoint x="860" y="870" as="sourcePoint" />
            <mxPoint x="910" y="820" as="targetPoint" />
          </mxGeometry>
        </mxCell>
      </root>
    </mxGraphModel>
  </diagram>
</mxfile>
